<svg width="298" height="372" viewBox="0 0 298 372" fill="none" xmlns="http://www.w3.org/2000/svg">
<path d="M148.36 4.91999H90.6759V234.782C103.786 192.83 136.124 174.039 176.765 161.366C213.473 151.315 240.13 133.398 241.441 91.446C241.878 74.84 239.693 60.856 234.886 49.931C218.28 14.971 185.068 4.91999 148.36 4.91999ZM0.216864 4.48299V0.112995H164.529C227.894 0.112995 297.377 11.038 297.377 91.446C297.377 132.524 276.401 155.248 235.76 164.425C223.961 167.047 212.162 169.232 199.926 171.417C146.175 181.031 98.9789 192.393 90.6759 257.069V330.485C90.6759 338.351 91.5499 350.587 96.3569 357.142C101.601 365.445 109.904 367.63 119.518 367.63V372C99.4159 370.689 79.3139 369.815 59.2119 369.815C49.1609 369.815 39.9839 369.815 30.8069 370.252C21.6299 370.689 13.3269 371.563 5.89786 372V367.63C15.9489 367.63 24.6889 365.445 29.9329 355.831C34.7399 348.402 34.7399 334.418 34.7399 325.678V54.301C34.7399 28.081 33.8659 4.48299 0.216864 4.48299Z" fill="url(#paint0_linear_277_5)"/>
<defs>
<linearGradient id="paint0_linear_277_5" x1="149" y1="-27" x2="149" y2="393" gradientUnits="userSpaceOnUse">
<stop offset="0.185" stop-color="#86A8CF"/>
<stop offset="1" stop-color="#EE4CDB" stop-opacity="0.86"/>
</linearGradient>
</defs>
</svg>
